<svg width="1280" height="720" viewBox="0 0 1280 720" fill="none" xmlns="http://www.w3.org/2000/svg">
<rect x="0.25" y="0.25" width="159.5" height="179.5" stroke="#2B01FE" stroke-width="0.5"/>
<rect x="0.25" y="180.25" width="159.5" height="179.5" stroke="#2B01FE" stroke-width="0.5"/>
<rect x="0.25" y="360.25" width="159.5" height="179.5" stroke="#2B01FE" stroke-width="0.5"/>
<rect x="0.25" y="540.25" width="159.5" height="179.5" stroke="#2B01FE" stroke-width="0.5"/>
<rect x="160.25" y="0.25" width="159.5" height="179.5" stroke="#2B01FE" stroke-width="0.5"/>
<rect x="160.25" y="180.25" width="159.5" height="179.5" stroke="#2B01FE" stroke-width="0.5"/>
<rect x="160.25" y="360.25" width="159.5" height="179.5" stroke="#2B01FE" stroke-width="0.5"/>
<rect x="160.25" y="540.25" width="159.5" height="179.5" stroke="#2B01FE" stroke-width="0.5"/>
<rect x="320.25" y="0.25" width="159.5" height="179.5" stroke="#2B01FE" stroke-width="0.5"/>
<rect x="320.25" y="180.25" width="159.5" height="179.5" stroke="#2B01FE" stroke-width="0.5"/>
<rect x="320.25" y="360.25" width="159.5" height="179.5" stroke="#2B01FE" stroke-width="0.5"/>
<rect x="320.25" y="540.25" width="159.5" height="179.5" stroke="#2B01FE" stroke-width="0.5"/>
<rect x="480.25" y="0.25" width="159.5" height="179.5" stroke="#2B01FE" stroke-width="0.5"/>
<rect x="480.25" y="180.25" width="159.5" height="179.5" stroke="#2B01FE" stroke-width="0.5"/>
<rect x="480.25" y="360.25" width="159.5" height="179.5" stroke="#2B01FE" stroke-width="0.5"/>
<rect x="480.25" y="540.25" width="159.5" height="179.5" stroke="#2B01FE" stroke-width="0.5"/>
<rect x="640.25" y="0.25" width="159.5" height="179.5" stroke="#2B01FE" stroke-width="0.5"/>
<rect x="640.25" y="180.25" width="159.5" height="179.5" stroke="#2B01FE" stroke-width="0.5"/>
<rect x="640.25" y="360.25" width="159.5" height="179.5" stroke="#2B01FE" stroke-width="0.5"/>
<rect x="640.25" y="540.25" width="159.5" height="179.5" stroke="#2B01FE" stroke-width="0.5"/>
<rect x="800.25" y="0.25" width="159.5" height="179.5" stroke="#2B01FE" stroke-width="0.5"/>
<rect x="800.25" y="180.25" width="159.5" height="179.5" stroke="#2B01FE" stroke-width="0.5"/>
<rect x="800.25" y="360.25" width="159.5" height="179.5" stroke="#2B01FE" stroke-width="0.5"/>
<rect x="800.25" y="540.25" width="159.5" height="179.5" stroke="#2B01FE" stroke-width="0.5"/>
<rect x="960.25" y="0.25" width="159.5" height="179.5" stroke="#2B01FE" stroke-width="0.5"/>
<rect x="960.25" y="180.25" width="159.5" height="179.5" stroke="#2B01FE" stroke-width="0.5"/>
<rect x="960.25" y="360.25" width="159.5" height="179.5" stroke="#2B01FE" stroke-width="0.5"/>
<rect x="960.25" y="540.25" width="159.5" height="179.5" stroke="#2B01FE" stroke-width="0.5"/>
<rect x="1120.25" y="0.25" width="159.5" height="179.5" stroke="#2B01FE" stroke-width="0.5"/>
<rect x="1120.25" y="180.25" width="159.5" height="179.5" stroke="#2B01FE" stroke-width="0.5"/>
<rect x="1120.25" y="360.25" width="159.5" height="179.5" stroke="#2B01FE" stroke-width="0.5"/>
<rect x="1120.25" y="540.25" width="159.5" height="179.5" stroke="#2B01FE" stroke-width="0.5"/>
<rect x="0.5" y="0.5" width="1279" height="719" stroke="#2B01FE"/>
</svg>
